<mxfile host="app.diagrams.net" agent="Mozilla/5.0 (Windows NT 10.0; Win64; x64; rv:132.0) Gecko/20100101 Firefox/132.0" version="24.8.4">
  <diagram name="Signup Flow" id="0">
    <mxGraphModel dx="1733" dy="991" grid="1" gridSize="10" guides="1" tooltips="1" connect="1" arrows="1" fold="1" page="1" pageScale="1" pageWidth="827" pageHeight="1169" math="0" shadow="0">
      <root>
        <mxCell id="0" />
        <mxCell id="1" parent="0" />
        <mxCell id="-osUkOKoSwC1BOyOO0oU-19" style="edgeStyle=orthogonalEdgeStyle;rounded=0;orthogonalLoop=1;jettySize=auto;html=1;entryX=0.5;entryY=0;entryDx=0;entryDy=0;" edge="1" parent="1" source="2" target="3">
          <mxGeometry relative="1" as="geometry" />
        </mxCell>
        <mxCell id="2" value="Entry" style="rounded=1;whiteSpace=wrap;html=1;" parent="1" vertex="1">
          <mxGeometry x="180" y="40" width="120" height="60" as="geometry" />
        </mxCell>
        <mxCell id="-osUkOKoSwC1BOyOO0oU-20" style="edgeStyle=orthogonalEdgeStyle;rounded=0;orthogonalLoop=1;jettySize=auto;html=1;entryX=0.5;entryY=0;entryDx=0;entryDy=0;" edge="1" parent="1" source="3" target="-osUkOKoSwC1BOyOO0oU-17">
          <mxGeometry relative="1" as="geometry" />
        </mxCell>
        <mxCell id="3" value="Profile" style="rounded=1;whiteSpace=wrap;html=1;" parent="1" vertex="1">
          <mxGeometry x="180" y="140" width="120" height="60" as="geometry" />
        </mxCell>
        <mxCell id="-osUkOKoSwC1BOyOO0oU-23" value="" style="edgeStyle=orthogonalEdgeStyle;rounded=0;orthogonalLoop=1;jettySize=auto;html=1;" edge="1" parent="1" source="4" target="5">
          <mxGeometry relative="1" as="geometry" />
        </mxCell>
        <mxCell id="4" value="Fun Questions" style="rounded=1;whiteSpace=wrap;html=1;" parent="1" vertex="1">
          <mxGeometry x="60" y="350" width="120" height="60" as="geometry" />
        </mxCell>
        <mxCell id="-osUkOKoSwC1BOyOO0oU-24" style="edgeStyle=orthogonalEdgeStyle;rounded=0;orthogonalLoop=1;jettySize=auto;html=1;entryX=0;entryY=0.5;entryDx=0;entryDy=0;" edge="1" parent="1" source="5" target="7">
          <mxGeometry relative="1" as="geometry" />
        </mxCell>
        <mxCell id="5" value="Work Experience" style="rounded=1;whiteSpace=wrap;html=1;" parent="1" vertex="1">
          <mxGeometry x="60" y="450" width="120" height="60" as="geometry" />
        </mxCell>
        <mxCell id="-osUkOKoSwC1BOyOO0oU-25" style="edgeStyle=orthogonalEdgeStyle;rounded=0;orthogonalLoop=1;jettySize=auto;html=1;entryX=1;entryY=0.5;entryDx=0;entryDy=0;" edge="1" parent="1" source="6" target="7">
          <mxGeometry relative="1" as="geometry" />
        </mxCell>
        <mxCell id="6" value="Education" style="rounded=1;whiteSpace=wrap;html=1;" parent="1" vertex="1">
          <mxGeometry x="300" y="350" width="120" height="60" as="geometry" />
        </mxCell>
        <mxCell id="-osUkOKoSwC1BOyOO0oU-26" style="edgeStyle=orthogonalEdgeStyle;rounded=0;orthogonalLoop=1;jettySize=auto;html=1;" edge="1" parent="1" source="7" target="8">
          <mxGeometry relative="1" as="geometry" />
        </mxCell>
        <mxCell id="7" value="Career Interest" style="rounded=1;whiteSpace=wrap;html=1;" parent="1" vertex="1">
          <mxGeometry x="180" y="535" width="120" height="60" as="geometry" />
        </mxCell>
        <mxCell id="8" value="Signup Complete" style="rounded=1;whiteSpace=wrap;html=1;" parent="1" vertex="1">
          <mxGeometry x="177.5" y="640" width="125" height="60" as="geometry" />
        </mxCell>
        <mxCell id="-osUkOKoSwC1BOyOO0oU-21" style="edgeStyle=orthogonalEdgeStyle;rounded=0;orthogonalLoop=1;jettySize=auto;html=1;" edge="1" parent="1" source="-osUkOKoSwC1BOyOO0oU-17" target="4">
          <mxGeometry relative="1" as="geometry" />
        </mxCell>
        <mxCell id="-osUkOKoSwC1BOyOO0oU-22" style="edgeStyle=orthogonalEdgeStyle;rounded=0;orthogonalLoop=1;jettySize=auto;html=1;entryX=0.5;entryY=0;entryDx=0;entryDy=0;" edge="1" parent="1" source="-osUkOKoSwC1BOyOO0oU-17" target="6">
          <mxGeometry relative="1" as="geometry" />
        </mxCell>
        <mxCell id="-osUkOKoSwC1BOyOO0oU-17" value="Account Type" style="rounded=1;whiteSpace=wrap;html=1;fillColor=#d5e8d4;strokeColor=#82b366;" vertex="1" parent="1">
          <mxGeometry x="180" y="240" width="120" height="60" as="geometry" />
        </mxCell>
        <mxCell id="-osUkOKoSwC1BOyOO0oU-18" value="&lt;div&gt;&lt;b&gt;Entry &lt;/b&gt;- email and&amp;nbsp;&lt;/div&gt;&lt;div&gt;password&lt;/div&gt;&lt;div&gt;&lt;br&gt;&lt;/div&gt;&lt;div&gt;&lt;b&gt;Profile &lt;/b&gt;- generic bio&lt;/div&gt;&lt;div&gt;&lt;br&gt;&lt;/div&gt;" style="text;html=1;whiteSpace=wrap;overflow=hidden;rounded=0;" vertex="1" parent="1">
          <mxGeometry x="40" y="50" width="130" height="80" as="geometry" />
        </mxCell>
      </root>
    </mxGraphModel>
  </diagram>
</mxfile>
